<?xml version="1.0" standalone="no"?>
<!DOCTYPE svg PUBLIC "-//W3C//DTD SVG 20010904//EN"
 "http://www.w3.org/TR/2001/REC-SVG-20010904/DTD/svg10.dtd">
<svg version="1.0" xmlns="http://www.w3.org/2000/svg"
 width="835.000000pt" height="288.000000pt" viewBox="0 0 835.000000 288.000000"
 preserveAspectRatio="xMidYMid meet">
<metadata>
Created by potrace 1.13, written by Peter Selinger 2001-2015
</metadata>
<g transform="translate(0.000000,288.000000) scale(0.100000,-0.100000)"
fill="#000000" stroke="none">
<path d="M3985 2768 c-293 -25 -590 -172 -811 -399 -169 -176 -280 -374 -341
-614 -20 -80 -26 -134 -30 -267 -8 -253 22 -403 127 -624 152 -322 430 -571
768 -688 158 -55 252 -69 447 -69 147 0 185 4 282 26 265 61 472 175 663 367
186 185 308 413 366 680 26 118 26 400 1 518 -56 261 -184 500 -367 682 -190
191 -401 308 -659 366 -118 26 -298 35 -446 22z m355 -172 c253 -49 446 -151
626 -331 142 -142 229 -281 287 -460 248 -759 -319 -1537 -1119 -1536 -431 0
-822 236 -1032 621 -157 288 -182 648 -66 958 138 367 474 659 849 737 44 9
81 18 83 20 11 11 306 4 372 -9z"/>
<path d="M3980 2429 c-35 -5 -66 -12 -68 -14 -3 -2 27 -51 66 -107 69 -100
225 -349 273 -435 13 -24 29 -43 35 -43 21 0 199 92 282 146 47 31 119 89 160
129 l76 74 -20 22 c-61 68 -270 176 -404 209 -99 25 -301 34 -400 19z"/>
<path d="M3611 2289 c-198 -122 -362 -333 -430 -553 -31 -102 -36 -96 82 -90
132 6 317 22 387 34 204 34 255 43 335 62 50 11 92 22 94 24 3 3 -27 55 -102
179 -23 38 -237 360 -250 378 -8 9 -18 17 -24 17 -5 0 -46 -23 -92 -51z"/>
<path d="M4876 2025 c-81 -96 -248 -216 -416 -300 -52 -26 -97 -49 -99 -51 -2
-2 15 -45 38 -96 l42 -93 247 0 c225 0 284 -5 425 -31 26 -5 27 -4 27 34 0
135 -63 335 -147 469 -76 123 -72 121 -117 68z"/>
<path d="M4085 1589 c-223 -60 -531 -105 -782 -115 l-163 -7 0 -80 c0 -184 82
-404 212 -568 l40 -50 55 80 c171 251 459 475 734 572 l67 23 -41 83 c-23 46
-44 83 -47 82 -3 0 -36 -9 -75 -20z"/>
<path d="M4575 1333 c-27 -2 -54 -8 -58 -12 -5 -5 5 -49 22 -99 62 -185 109
-361 157 -590 5 -23 5 -23 50 10 150 108 297 321 352 513 37 128 38 123 -9
135 -128 35 -377 56 -514 43z"/>
<path d="M4215 1236 c-287 -118 -513 -302 -668 -543 l-27 -42 33 -25 c100 -75
262 -145 398 -171 105 -20 279 -19 377 1 81 17 180 48 194 62 21 21 -113 519
-197 735 -9 23 -17 22 -110 -17z"/>
<path d="M1810 2751 c-230 -74 -381 -278 -383 -516 0 -49 3 -101 7 -114 l8
-24 -73 7 c-369 35 -704 192 -968 454 -57 57 -107 100 -111 95 -4 -4 -17 -33
-30 -63 -29 -68 -39 -221 -20 -301 28 -121 100 -237 191 -309 l51 -40 -36 0
c-38 0 -160 31 -194 49 -32 17 -35 14 -27 -36 25 -175 108 -310 245 -399 58
-38 109 -61 154 -69 20 -4 39 -11 41 -15 8 -13 -80 -25 -167 -24 l-77 1 15
-36 c45 -107 157 -225 260 -273 34 -16 100 -36 147 -45 47 -9 84 -20 81 -24
-7 -13 -111 -78 -171 -109 -159 -80 -279 -111 -460 -118 -79 -2 -143 -8 -143
-11 0 -11 234 -119 315 -145 149 -48 262 -67 431 -73 222 -8 369 12 579 77 77
24 315 138 315 152 0 4 6 8 13 8 31 1 235 177 320 279 228 271 359 584 388
928 6 74 9 145 6 159 -4 21 7 34 68 84 79 64 192 187 182 197 -4 3 -19 1 -34
-5 -54 -21 -169 -50 -223 -57 l-55 -7 45 29 c62 41 145 135 181 204 16 33 27
59 24 59 -3 0 -22 -8 -43 -19 -60 -30 -165 -69 -227 -86 l-58 -15 -33 29 c-49
44 -147 98 -216 121 -81 26 -238 27 -318 1z"/>
<path d="M5873 2685 c-79 -22 -131 -51 -188 -109 -58 -58 -100 -136 -115 -215
-14 -73 -14 -1769 0 -1842 24 -128 115 -244 237 -302 l68 -32 927 -3 c919 -2
928 -2 990 19 154 51 258 168 286 319 14 76 15 1755 1 1834 -29 163 -157 298
-320 335 -28 7 -370 10 -939 10 -739 0 -904 -3 -947 -14z m1846 -306 c17 -6
36 -19 41 -29 6 -10 10 -66 10 -125 0 -99 -2 -107 -25 -130 -22 -23 -31 -25
-129 -25 -95 0 -107 2 -131 23 -26 22 -27 26 -27 129 0 112 9 143 45 158 32
13 178 12 216 -1z m-1607 -906 c-7 -239 63 -407 234 -565 109 -101 235 -158
397 -179 195 -27 424 49 571 189 163 157 236 347 223 579 l-6 103 120 0 119 0
0 -495 c0 -532 1 -523 -52 -572 -12 -11 -41 -26 -63 -32 -57 -16 -1619 -15
-1666 0 -19 7 -45 21 -57 33 -54 48 -53 43 -53 534 0 252 0 474 0 495 l1 37
118 0 118 0 -4 -127z m1177 80 c17 -64 15 -188 -3 -248 -75 -250 -352 -401
-598 -325 -123 38 -239 134 -295 244 -50 99 -64 251 -32 345 l11 31 453 0 453
0 11 -47z"/>
</g>
</svg>
