<svg id="Layer_1" data-name="Layer 1" xmlns="http://www.w3.org/2000/svg" viewBox="0 0 69.63 89.39">
  <defs>
    <style>
      .cls-1 {
        fill: #010101;
      }
    </style>
  </defs>
  <title>PMS-Vector-Icons</title>
  <path class="cls-1" d="M63.66,34.68h-9V22.74c0-14.41-6.64-22.88-19.9-22.88s-19.9,8.47-19.9,22.88V34.68H5c-2.75,0-5,3.21-5,6v38.8a7.3,7.3,0,0,0,4.73,6.5l6,1.92a38.45,38.45,0,0,0,9.71,1.52H49.24a38.2,38.2,0,0,0,9.7-1.53l5.95-1.92a7.29,7.29,0,0,0,4.74-6.5V40.64C69.63,37.89,66.41,34.68,63.66,34.68Zm-18.9,0H24.87V20.74c0-7.19,4-10.94,9.95-10.94s9.95,3.75,9.95,10.94V34.68Z"/>
</svg>
